<svg xmlns="http://www.w3.org/2000/svg" xmlns:xlink="http://www.w3.org/1999/xlink" width="250" zoomAndPan="magnify" viewBox="0 0 187.5 74.999997" height="100" preserveAspectRatio="xMidYMid meet" version="1.0"><defs><g/><clipPath id="id1"><path d="M 8.230469 27 L 29 27 L 29 54 L 8.230469 54 Z M 8.230469 27 " clip-rule="nonzero"/></clipPath><clipPath id="id2"><path d="M 8.230469 2.453125 L 29.980469 2.453125 L 29.980469 35 L 8.230469 35 Z M 8.230469 2.453125 " clip-rule="nonzero"/></clipPath><clipPath id="id3"><path d="M 8.230469 47 L 29 47 L 29 72.953125 L 8.230469 72.953125 Z M 8.230469 47 " clip-rule="nonzero"/></clipPath><clipPath id="id4"><path d="M 8.230469 22 L 29.980469 22 L 29.980469 55 L 8.230469 55 Z M 8.230469 22 " clip-rule="nonzero"/></clipPath></defs><g clip-path="url(#id1)"><path fill="#dd390d" d="M 26.195312 53.089844 L 8.257812 34.84375 L 15.039062 27.945312 L 26.195312 39.296875 C 29.9375 43.101562 29.9375 49.285156 26.195312 53.089844 Z M 26.195312 53.089844 " fill-opacity="1" fill-rule="nonzero"/></g><g clip-path="url(#id2)"><path fill="#0087f6" d="M 26.195312 16.597656 L 8.257812 34.84375 L 8.257812 21.050781 L 26.195312 2.804688 C 29.953125 6.609375 29.953125 12.792969 26.195312 16.597656 Z M 26.195312 16.597656 " fill-opacity="1" fill-rule="nonzero"/></g><g clip-path="url(#id3)"><path fill="#dd390d" d="M 26.195312 72.601562 L 8.257812 54.367188 L 15.039062 47.46875 L 26.195312 58.820312 C 29.9375 62.613281 29.9375 68.792969 26.195312 72.601562 Z M 26.195312 72.601562 " fill-opacity="1" fill-rule="nonzero"/></g><g clip-path="url(#id4)"><path fill="#f7941d" d="M 26.195312 36.109375 L 8.257812 54.367188 L 8.257812 40.574219 L 26.195312 22.3125 C 29.953125 26.117188 29.953125 32.300781 26.195312 36.109375 Z M 26.195312 36.109375 " fill-opacity="1" fill-rule="nonzero"/></g><g fill="#ffffff" fill-opacity="1"><g transform="translate(41.14031, 50.721172)"><g><path d="M 3.203125 -4 L 3.203125 -19.703125 L 1.265625 -19.796875 L 1.265625 -22.703125 L 9.53125 -22.703125 L 9.53125 -19.9375 L 8.40625 -19.828125 C 7.738281 -19.765625 7.40625 -19.40625 7.40625 -18.75 L 7.40625 -3 L 9.359375 -2.90625 L 9.359375 0 L 1.09375 0 L 1.09375 -2.765625 L 2.21875 -2.875 C 2.5625 -2.914062 2.8125 -3.007812 2.96875 -3.15625 C 3.125 -3.300781 3.203125 -3.582031 3.203125 -4 Z M 3.203125 -4 "/></g></g></g><g fill="#ffffff" fill-opacity="1"><g transform="translate(52.030028, 50.721172)"><g><path d="M 0.921875 -14.4375 L 0.921875 -17.171875 L 6.6875 -17.171875 L 6.6875 -14.953125 C 7.28125 -15.796875 8.066406 -16.460938 9.046875 -16.953125 C 10.023438 -17.441406 11.082031 -17.6875 12.21875 -17.6875 C 13.945312 -17.6875 15.285156 -17.191406 16.234375 -16.203125 C 17.179688 -15.210938 17.65625 -13.726562 17.65625 -11.75 L 17.65625 -2.828125 L 19.59375 -2.734375 L 19.59375 0 L 11.46875 0 L 11.46875 -2.59375 L 12.59375 -2.703125 C 12.9375 -2.742188 13.1875 -2.835938 13.34375 -2.984375 C 13.507812 -3.128906 13.59375 -3.410156 13.59375 -3.828125 L 13.59375 -10.859375 C 13.59375 -12.109375 13.394531 -13.035156 13 -13.640625 C 12.613281 -14.242188 11.878906 -14.546875 10.796875 -14.546875 C 9.722656 -14.546875 8.863281 -14.203125 8.21875 -13.515625 C 7.582031 -12.835938 7.265625 -12.03125 7.265625 -11.09375 L 7.265625 -2.828125 L 9.21875 -2.734375 L 9.21875 0 L 1.09375 0 L 1.09375 -2.59375 L 2.21875 -2.703125 C 2.5625 -2.742188 2.8125 -2.835938 2.96875 -2.984375 C 3.125 -3.128906 3.203125 -3.410156 3.203125 -3.828125 L 3.203125 -13.28125 C 3.203125 -13.96875 2.921875 -14.320312 2.359375 -14.34375 Z M 0.921875 -14.4375 "/></g></g></g><g fill="#ffffff" fill-opacity="1"><g transform="translate(72.921789, 50.721172)"><g><path d="M 10.078125 -14.578125 C 9.523438 -14.785156 8.863281 -14.890625 8.09375 -14.890625 C 7.320312 -14.890625 6.703125 -14.710938 6.234375 -14.359375 C 5.765625 -14.003906 5.53125 -13.570312 5.53125 -13.0625 C 5.53125 -12.550781 5.613281 -12.148438 5.78125 -11.859375 C 5.957031 -11.578125 6.226562 -11.332031 6.59375 -11.125 C 7.15625 -10.832031 7.832031 -10.578125 8.625 -10.359375 C 9.425781 -10.140625 10.019531 -9.96875 10.40625 -9.84375 C 10.800781 -9.71875 11.285156 -9.507812 11.859375 -9.21875 C 12.441406 -8.925781 12.878906 -8.609375 13.171875 -8.265625 C 13.972656 -7.421875 14.375 -6.335938 14.375 -5.015625 C 14.375 -3.304688 13.753906 -1.96875 12.515625 -1 C 11.273438 -0.0390625 9.695312 0.4375 7.78125 0.4375 C 5.007812 0.4375 2.914062 0.0859375 1.5 -0.609375 L 1.5 -5.359375 L 4.578125 -5.59375 L 4.578125 -3.953125 C 4.578125 -2.953125 5.53125 -2.453125 7.4375 -2.453125 C 9.351562 -2.453125 10.3125 -3.148438 10.3125 -4.546875 C 10.3125 -5.046875 10.144531 -5.453125 9.8125 -5.765625 C 9.488281 -6.085938 9.164062 -6.304688 8.84375 -6.421875 C 8.519531 -6.535156 8.132812 -6.648438 7.6875 -6.765625 C 7.25 -6.878906 6.816406 -6.988281 6.390625 -7.09375 C 5.972656 -7.207031 5.519531 -7.363281 5.03125 -7.5625 C 4.539062 -7.757812 4 -8.039062 3.40625 -8.40625 C 2.25 -9.15625 1.671875 -10.410156 1.671875 -12.171875 C 1.671875 -13.929688 2.296875 -15.289062 3.546875 -16.25 C 4.796875 -17.207031 6.367188 -17.6875 8.265625 -17.6875 C 10.171875 -17.6875 12.054688 -17.226562 13.921875 -16.3125 L 13.921875 -12.21875 L 10.859375 -11.984375 L 10.859375 -13.421875 C 10.859375 -13.984375 10.597656 -14.367188 10.078125 -14.578125 Z M 10.078125 -14.578125 "/></g></g></g><g fill="#ffffff" fill-opacity="1"><g transform="translate(88.727192, 50.721172)"><g><path d="M 11.5 -17.171875 L 18.703125 -17.171875 L 18.703125 -14.515625 L 17.65625 -14.4375 C 17.195312 -14.394531 16.890625 -14.125 16.734375 -13.625 L 12.328125 0 L 7.09375 0 L 2.328125 -13.59375 C 2.210938 -13.90625 2.09375 -14.117188 1.96875 -14.234375 C 1.84375 -14.347656 1.628906 -14.414062 1.328125 -14.4375 L 0.34375 -14.515625 L 0.34375 -17.171875 L 8.359375 -17.171875 L 8.359375 -14.4375 L 6.28125 -14.34375 L 9.796875 -3.109375 L 9.859375 -3.109375 L 13.28125 -14.34375 L 11.5 -14.4375 Z M 11.5 -17.171875 "/></g></g></g><g fill="#ffffff" fill-opacity="1"><g transform="translate(108.185213, 50.721172)"><g><path d="M 9.703125 -17.6875 C 11.398438 -17.6875 12.75 -17.269531 13.75 -16.4375 C 14.757812 -15.601562 15.265625 -14.4375 15.265625 -12.9375 C 15.265625 -11.9375 15.046875 -11.054688 14.609375 -10.296875 C 14.179688 -9.535156 13.644531 -8.9375 13 -8.5 C 12.363281 -8.070312 11.59375 -7.71875 10.6875 -7.4375 C 9.164062 -6.988281 7.445312 -6.765625 5.53125 -6.765625 C 5.601562 -5.554688 5.976562 -4.582031 6.65625 -3.84375 C 7.34375 -3.101562 8.390625 -2.734375 9.796875 -2.734375 C 11.210938 -2.734375 12.625 -3.234375 14.03125 -4.234375 L 15.328125 -1.46875 C 14.867188 -1.0625 14.097656 -0.640625 13.015625 -0.203125 C 11.941406 0.222656 10.710938 0.4375 9.328125 0.4375 C 6.546875 0.4375 4.503906 -0.328125 3.203125 -1.859375 C 1.910156 -3.398438 1.265625 -5.507812 1.265625 -8.1875 C 1.265625 -10.875 2.003906 -13.128906 3.484375 -14.953125 C 4.960938 -16.773438 7.035156 -17.6875 9.703125 -17.6875 Z M 8.140625 -9.875 C 8.972656 -10.03125 9.738281 -10.363281 10.4375 -10.875 C 11.144531 -11.382812 11.5 -11.992188 11.5 -12.703125 C 11.5 -14.085938 10.816406 -14.78125 9.453125 -14.78125 C 8.179688 -14.78125 7.203125 -14.273438 6.515625 -13.265625 C 5.835938 -12.253906 5.460938 -11.039062 5.390625 -9.625 C 6.390625 -9.644531 7.304688 -9.726562 8.140625 -9.875 Z M 8.140625 -9.875 "/></g></g></g><g fill="#ffffff" fill-opacity="1"><g transform="translate(125.117123, 50.721172)"><g><path d="M 10.078125 -14.578125 C 9.523438 -14.785156 8.863281 -14.890625 8.09375 -14.890625 C 7.320312 -14.890625 6.703125 -14.710938 6.234375 -14.359375 C 5.765625 -14.003906 5.53125 -13.570312 5.53125 -13.0625 C 5.53125 -12.550781 5.613281 -12.148438 5.78125 -11.859375 C 5.957031 -11.578125 6.226562 -11.332031 6.59375 -11.125 C 7.15625 -10.832031 7.832031 -10.578125 8.625 -10.359375 C 9.425781 -10.140625 10.019531 -9.96875 10.40625 -9.84375 C 10.800781 -9.71875 11.285156 -9.507812 11.859375 -9.21875 C 12.441406 -8.925781 12.878906 -8.609375 13.171875 -8.265625 C 13.972656 -7.421875 14.375 -6.335938 14.375 -5.015625 C 14.375 -3.304688 13.753906 -1.96875 12.515625 -1 C 11.273438 -0.0390625 9.695312 0.4375 7.78125 0.4375 C 5.007812 0.4375 2.914062 0.0859375 1.5 -0.609375 L 1.5 -5.359375 L 4.578125 -5.59375 L 4.578125 -3.953125 C 4.578125 -2.953125 5.53125 -2.453125 7.4375 -2.453125 C 9.351562 -2.453125 10.3125 -3.148438 10.3125 -4.546875 C 10.3125 -5.046875 10.144531 -5.453125 9.8125 -5.765625 C 9.488281 -6.085938 9.164062 -6.304688 8.84375 -6.421875 C 8.519531 -6.535156 8.132812 -6.648438 7.6875 -6.765625 C 7.25 -6.878906 6.816406 -6.988281 6.390625 -7.09375 C 5.972656 -7.207031 5.519531 -7.363281 5.03125 -7.5625 C 4.539062 -7.757812 4 -8.039062 3.40625 -8.40625 C 2.25 -9.15625 1.671875 -10.410156 1.671875 -12.171875 C 1.671875 -13.929688 2.296875 -15.289062 3.546875 -16.25 C 4.796875 -17.207031 6.367188 -17.6875 8.265625 -17.6875 C 10.171875 -17.6875 12.054688 -17.226562 13.921875 -16.3125 L 13.921875 -12.21875 L 10.859375 -11.984375 L 10.859375 -13.421875 C 10.859375 -13.984375 10.597656 -14.367188 10.078125 -14.578125 Z M 10.078125 -14.578125 "/></g></g></g><g fill="#ffffff" fill-opacity="1"><g transform="translate(140.922528, 50.721172)"><g><path d="M 4.921875 -20.796875 L 7.140625 -20.796875 L 7.140625 -17.171875 L 11.671875 -17.171875 L 11.328125 -14.3125 L 7.140625 -14.3125 L 7.140625 -5.328125 C 7.140625 -4.328125 7.320312 -3.625 7.6875 -3.21875 C 8.050781 -2.820312 8.613281 -2.625 9.375 -2.625 C 10.132812 -2.625 10.898438 -2.863281 11.671875 -3.34375 L 12.703125 -0.71875 C 11.566406 0.0820312 10.117188 0.484375 8.359375 0.484375 C 7.335938 0.484375 6.472656 0.347656 5.765625 0.078125 C 5.066406 -0.179688 4.546875 -0.46875 4.203125 -0.78125 C 3.859375 -1.101562 3.59375 -1.570312 3.40625 -2.1875 C 3.226562 -2.800781 3.128906 -3.285156 3.109375 -3.640625 C 3.085938 -3.992188 3.078125 -4.507812 3.078125 -5.1875 L 3.078125 -14.3125 L 0.65625 -14.3125 L 0.984375 -16.796875 C 2.054688 -16.890625 2.863281 -17.269531 3.40625 -17.9375 C 3.957031 -18.613281 4.460938 -19.566406 4.921875 -20.796875 Z M 4.921875 -20.796875 "/></g></g></g><g fill="#ffffff" fill-opacity="1"><g transform="translate(154.201816, 50.721172)"><g><path d="M 16.453125 -16.484375 L 16.453125 -3.796875 C 16.453125 -3.429688 16.515625 -3.175781 16.640625 -3.03125 C 16.765625 -2.894531 16.988281 -2.816406 17.3125 -2.796875 L 18.40625 -2.734375 L 18.40625 0 L 12.96875 0 L 12.96875 -1.984375 L 12.875 -2.015625 C 11.726562 -0.378906 10.164062 0.4375 8.1875 0.4375 C 5.875 0.4375 4.15625 -0.300781 3.03125 -1.78125 C 1.914062 -3.257812 1.359375 -5.285156 1.359375 -7.859375 C 1.359375 -10.953125 2.109375 -13.363281 3.609375 -15.09375 C 5.117188 -16.820312 7.375 -17.6875 10.375 -17.6875 C 12.3125 -17.6875 14.335938 -17.285156 16.453125 -16.484375 Z M 12.5 -5.421875 L 12.5 -14.265625 C 11.863281 -14.566406 10.984375 -14.71875 9.859375 -14.71875 C 8.335938 -14.71875 7.234375 -14.101562 6.546875 -12.875 C 5.867188 -11.644531 5.53125 -10.015625 5.53125 -7.984375 C 5.53125 -4.296875 6.710938 -2.453125 9.078125 -2.453125 C 10.078125 -2.453125 10.894531 -2.753906 11.53125 -3.359375 C 12.175781 -3.960938 12.5 -4.648438 12.5 -5.421875 Z M 12.5 -5.421875 "/></g></g></g></svg>