<svg xmlns="http://www.w3.org/2000/svg" xmlns:xlink="http://www.w3.org/1999/xlink" width="500" zoomAndPan="magnify" viewBox="0 0 375 374.999991" height="500" preserveAspectRatio="xMidYMid meet" version="1.0"><defs><clipPath id="id1"><path d="M 54 94 L 321 94 L 321 323.953125 L 54 323.953125 Z M 54 94 " clip-rule="nonzero"/></clipPath><clipPath id="id2"><path d="M 48.410156 51 L 326.660156 51 L 326.660156 293 L 48.410156 293 Z M 48.410156 51 " clip-rule="nonzero"/></clipPath></defs><g clip-path="url(#id1)"><path fill="#68ad79" d="M 54.324219 323.789062 L 189.304688 94.292969 L 320.90625 323.789062 L 187.617188 271.3125 L 54.324219 323.789062 " fill-opacity="1" fill-rule="nonzero"/></g><g clip-path="url(#id2)"><path fill="#393839" d="M 59.386719 289.375 C 68.722656 273.496094 78.0625 257.621094 87.398438 241.746094 C 106.339844 209.542969 125.277344 177.339844 144.214844 145.144531 C 159.136719 119.769531 174.058594 94.402344 188.976562 69.035156 C 190.769531 65.984375 192.566406 62.929688 194.363281 59.875 L 184.238281 59.875 C 193.441406 75.921875 202.636719 91.964844 211.839844 108.007812 C 230.429688 140.425781 249.019531 172.84375 267.613281 205.265625 C 282.082031 230.496094 296.546875 255.730469 311.019531 280.960938 C 312.625 283.765625 314.234375 286.570312 315.84375 289.375 C 318.050781 286.503906 320.253906 283.636719 322.464844 280.765625 C 297.257812 270.84375 272.054688 260.917969 246.851562 250.992188 C 231.527344 244.960938 216.207031 238.929688 200.878906 232.894531 C 197.25 231.46875 193.628906 230.039062 190.007812 228.613281 C 187.535156 227.640625 185.621094 228.457031 183.367188 229.347656 C 153.617188 241.0625 123.859375 252.773438 94.117188 264.484375 C 80.332031 269.914062 66.546875 275.339844 52.765625 280.765625 C 49.796875 281.933594 47.757812 284.644531 48.671875 287.976562 C 49.453125 290.808594 52.90625 293.242188 55.882812 292.070312 C 81.085938 282.144531 106.289062 272.222656 131.488281 262.300781 C 150.71875 254.734375 169.941406 247.160156 189.167969 239.59375 L 186.054688 239.59375 C 211.257812 249.515625 236.457031 259.441406 261.667969 269.359375 C 280.890625 276.929688 300.113281 284.5 319.34375 292.070312 C 324.367188 294.046875 328.3125 287.5625 325.960938 283.460938 C 316.765625 267.417969 307.5625 251.375 298.363281 235.332031 C 279.769531 202.914062 261.1875 170.488281 242.59375 138.070312 C 228.125 112.835938 213.652344 87.605469 199.183594 62.378906 C 197.578125 59.570312 195.972656 56.769531 194.359375 53.960938 C 192.160156 50.128906 186.453125 50.191406 184.238281 53.960938 C 174.902344 69.839844 165.5625 85.71875 156.222656 101.59375 C 137.285156 133.796875 118.347656 165.992188 99.410156 198.195312 C 84.488281 223.5625 69.570312 248.9375 54.644531 274.304688 C 52.851562 277.355469 51.054688 280.40625 49.261719 283.460938 C 45.421875 289.988281 55.554688 295.886719 59.382812 289.375 " fill-opacity="1" fill-rule="nonzero"/></g></svg>